name D:\school\WTK\thesis\model\3dpredictsim\Results\MidTarsalJoint\Fal_s1_bCst_PF_Natali2010_ls144_MT_k20_Tmtp_ig24.mot
datacolumns 128
datarows 4
range 1.71155717 1.74578831
endheader
time	pelvis_tilt	pelvis_list	pelvis_rotation	pelvis_tx	pelvis_ty	pelvis_tz	hip_flexion_l	hip_adduction_l	hip_rotation_l	hip_flexion_r	hip_adduction_r	hip_rotation_r	knee_angle_l	knee_angle_r	ankle_angle_l	ankle_angle_r	subtalar_angle_l	subtalar_angle_r	tmt_angle_l	tmt_angle_r	mtp_angle_l	mtp_angle_r	lumbar_extension	lumbar_bending	lumbar_rotation	arm_flex_l	arm_add_l	arm_rot_l	arm_flex_r	arm_add_r	arm_rot_r	elbow_flex_l	elbow_flex_r	pro_sup_l	pro_sup_r	glut_med1_l/activation	glut_med2_l/activation	glut_med3_l/activation	glut_min1_l/activation	glut_min2_l/activation	glut_min3_l/activation	semimem_l/activation	semiten_l/activation	bifemlh_l/activation	bifemsh_l/activation	sar_l/activation	add_long_l/activation	add_brev_l/activation	add_mag1_l/activation	add_mag2_l/activation	add_mag3_l/activation	tfl_l/activation	pect_l/activation	grac_l/activation	glut_max1_l/activation	glut_max2_l/activation	glut_max3_l/activation	iliacus_l/activation	psoas_l/activation	quad_fem_l/activation	gem_l/activation	peri_l/activation	rect_fem_l/activation	vas_med_l/activation	vas_int_l/activation	vas_lat_l/activation	med_gas_l/activation	lat_gas_l/activation	soleus_l/activation	tib_post_l/activation	flex_dig_l/activation	flex_hal_l/activation	tib_ant_l/activation	per_brev_l/activation	per_long_l/activation	per_tert_l/activation	ext_dig_l/activation	ext_hal_l/activation	ercspn_l/activation	intobl_l/activation	extobl_l/activation	glut_med1_r/activation	glut_med2_r/activation	glut_med3_r/activation	glut_min1_r/activation	glut_min2_r/activation	glut_min3_r/activation	semimem_r/activation	semiten_r/activation	bifemlh_r/activation	bifemsh_r/activation	sar_r/activation	add_long_r/activation	add_brev_r/activation	add_mag1_r/activation	add_mag2_r/activation	add_mag3_r/activation	tfl_r/activation	pect_r/activation	grac_r/activation	glut_max1_r/activation	glut_max2_r/activation	glut_max3_r/activation	iliacus_r/activation	psoas_r/activation	quad_fem_r/activation	gem_r/activation	peri_r/activation	rect_fem_r/activation	vas_med_r/activation	vas_int_r/activation	vas_lat_r/activation	med_gas_r/activation	lat_gas_r/activation	soleus_r/activation	tib_post_r/activation	flex_dig_r/activation	flex_hal_r/activation	tib_ant_r/activation	per_brev_r/activation	per_long_r/activation	per_tert_r/activation	ext_dig_r/activation	ext_hal_r/activation	ercspn_r/activation	intobl_r/activation	extobl_r/activation	
          1.71155717	         -2.93003986	          2.37864758	         -5.41406589	          2.13944646	          0.92010057	          0.00227619	         28.25756675	          4.08546965	         -1.46672037	        -16.68587079	         -0.52065945	          6.75637911	         -8.60019893	         -8.33166265	          8.44079317	         -0.12861071	         -8.15683370	          2.39445067	        -11.46352605	         -0.50672112	         29.76546235	         18.96720762	         -1.58389364	         -0.35801453	          2.25191887	         -6.61073657	        -13.47058129	          5.33949696	          5.18643455	        -13.45206340	         16.60038696	         17.41177318	         34.64235323	         86.51662706	         86.51662706	          0.09969550	          0.05950847	          0.05000027	          0.07160414	          0.05950939	          0.05000562	          0.21480508	          0.07517096	          0.08705133	          0.05950785	          0.05000067	          0.12447785	          0.24904708	          0.18854636	          0.15595630	          0.08340261	          0.05000135	          0.07090325	          0.12670594	          0.05000107	          0.05000056	          0.06916625	          0.06872833	          0.05451901	          0.45939677	          0.20129303	          0.12346198	          0.08429654	          0.17401484	          0.17325559	          0.14436302	          0.05000014	          0.05000027	          0.05000003	          0.05000022	          0.05000125	          0.05000080	          0.53890340	          0.29259381	          0.19829404	          0.18998012	          0.52579358	          0.14118203	          0.05000165	          0.12805755	          0.11940391	          0.33745260	          0.08429563	          0.05952127	          0.31725834	          0.16912816	          0.09674191	          0.05000503	          0.05000092	          0.05000060	          0.05000110	          0.09835759	          0.05028854	          0.05880248	          0.05000390	          0.05000542	          0.05000460	          0.27842307	          0.05384120	          0.05000303	          0.05000369	          0.05000246	          0.05000253	          0.38652025	          0.56056414	          0.05000033	          0.05000195	          0.05950719	          0.26903712	          0.07717488	          0.05008152	          0.05916773	          0.24966992	          0.35446941	          0.31247885	          0.27242102	          0.24955143	          0.32760903	          0.05000023	          0.05598716	          0.07787756	          0.05000169	          0.05000037	          0.05000123	          0.05000006	          0.07082572	          0.05000055	
          1.72296755	         -2.92963961	          2.48171339	         -5.71908209	          2.15675280	          0.91927367	          0.00213472	         27.56286969	          4.37769164	         -1.17669419	        -16.78766391	         -0.85590078	          6.49702259	         -9.05781150	         -9.80729544	          7.85259235	         -0.55065306	         -8.34315993	          3.32789434	        -11.65274808	         -1.79993258	         29.76810319	         21.47232557	         -1.36786105	         -0.54835650	          2.31214039	         -7.50353355	        -13.46749123	          5.26025772	          4.88996651	        -13.45506589	         16.89454109	         17.02207601	         35.78127460	         86.51662706	         86.51662706	          0.16334258	          0.05000023	          0.13832157	          0.06016288	          0.05000077	          0.05000049	          0.19414298	          0.06316127	          0.08296418	          0.05000035	          0.05225199	          0.10458829	          0.20925336	          0.15842132	          0.13103762	          0.08150674	          0.05000129	          0.05971230	          0.10646198	          0.05000207	          0.08407287	          0.07274737	          0.05774844	          0.05003553	          0.38599194	          0.16912941	          0.10373495	          0.07082716	          0.14620984	          0.14557190	          0.12129595	          0.05951216	          0.07019884	          0.05950793	          0.05883438	          0.05000679	          0.05021465	          0.49349356	          0.29690226	          0.20912430	          0.15962407	          0.56615086	          0.11862322	          0.05000003	          0.11426478	          0.10032485	          0.35727627	          0.07082645	          0.05001076	          0.26656563	          0.14210402	          0.08128403	          0.05000608	          0.05000408	          0.05000321	          0.05000077	          0.08264223	          0.06514514	          0.05950797	          0.05950673	          0.05074463	          0.05950838	          0.23393534	          0.05002502	          0.05000558	          0.05001384	          0.05000976	          0.05005140	          0.32476000	          0.55230761	          0.05000231	          0.05000310	          0.05000032	          0.22604882	          0.06484685	          0.12128092	          0.10954399	          0.20977620	          0.29783033	          0.26918187	          0.23290411	          0.20967783	          0.27526334	          0.05000007	          0.05000045	          0.10388767	          0.05000025	          0.05000007	          0.05000040	          0.05000028	          0.05950884	          0.05951790	
          1.73437793	         -2.92696954	          2.58572258	         -5.99140996	          2.17431626	          0.91853724	          0.00199307	         26.76162456	          4.61591379	         -0.87911283	        -16.83744192	         -1.19557814	          6.23897173	         -9.50488708	        -11.33918253	          7.20565050	         -1.08431420	         -8.54020875	          4.24336530	        -11.75028842	         -3.33637445	         29.90114732	         24.27731101	         -1.13777766	         -0.75001210	          2.36158590	         -8.41113885	        -13.46782206	          5.22333947	          4.52223429	        -13.45763208	         17.12426302	         16.68374968	         36.88658901	         86.51662706	         86.51662706	          0.24622950	          0.22969428	          0.28224713	          0.22032468	          0.20651938	          0.16863702	          0.16312170	          0.05668379	          0.06970777	          0.08431384	          0.05680976	          0.08787667	          0.17581773	          0.13310824	          0.11010032	          0.09590483	          0.05000233	          0.05017288	          0.08945290	          0.15999724	          0.12666269	          0.06112406	          0.05000082	          0.05000073	          0.32431602	          0.14210530	          0.17167376	          0.05951005	          0.12284775	          0.12231177	          0.10191473	          0.05000314	          0.05898335	          0.05000009	          0.05000021	          0.05000155	          0.05000147	          0.59316872	          0.36722542	          0.22626710	          0.39202040	          0.57662026	          0.24889545	          0.06209328	          0.11940699	          0.08429436	          0.35264400	          0.05950947	          0.05000014	          0.45315503	          0.11939798	          0.06829614	          0.05000418	          0.05000047	          0.05000034	          0.05000193	          0.06943975	          0.07014999	          0.05000119	          0.05000096	          0.05000174	          0.05000138	          0.19655672	          0.05966153	          0.05000142	          0.05000253	          0.05000150	          0.05000098	          0.27286924	          0.54286366	          0.05000017	          0.05000098	          0.05000064	          0.18992961	          0.05448601	          0.14210585	          0.14211029	          0.17625691	          0.25024125	          0.22617038	          0.19568955	          0.17617467	          0.23128048	          0.05000029	          0.05950970	          0.11291978	          0.05000199	          0.05177991	          0.05000114	          0.05000254	          0.05000018	          0.05000780	
          1.74578831	         -2.92296538	          2.68163154	         -6.22760445	          2.19193860	          0.91795729	          0.00181682	         25.96057265	          4.85304467	         -0.58738031	        -16.79568063	         -1.52885520	          5.99508015	         -9.96852298	        -12.96464442	          6.64064250	         -1.75017334	         -8.73318203	          5.14864103	        -11.75648244	         -5.10794239	         29.98799170	         27.33118893	         -0.91371222	         -0.95318795	          2.40290725	         -9.28993229	        -13.46501800	          5.22556798	          4.11941903	        -13.46464374	         17.31387284	         16.37644240	         37.92870895	         86.51662706	         86.51662706	          0.34411261	          0.31868865	          0.36003169	          0.18512158	          0.17365217	          0.21803528	          0.13705740	          0.05024621	          0.06268371	          0.07084180	          0.05000150	          0.07383537	          0.14772481	          0.11184064	          0.09251058	          0.13267741	          0.05000171	          0.05000535	          0.07516062	          0.21789147	          0.16978908	          0.11734211	          0.05000042	          0.05000043	          0.27249505	          0.11939920	          0.14433556	          0.05000133	          0.15296821	          0.15427615	          0.12732155	          0.05000011	          0.05000025	          0.05000007	          0.05000075	          0.05000137	          0.05000126	          0.67394247	          0.37250696	          0.22229844	          0.41222763	          0.64413422	          0.30995915	          0.08268396	          0.10032751	          0.07082533	          0.38602675	          0.05000107	          0.05000033	          0.38074827	          0.10032003	          0.05738365	          0.05000382	          0.05000059	          0.05000051	          0.05000033	          0.05834514	          0.07889759	          0.11166059	          0.05002070	          0.05004021	          0.07826464	          0.16515031	          0.05013141	          0.05000170	          0.05000665	          0.05000553	          0.05000549	          0.22926868	          0.51189739	          0.05000060	          0.05000173	          0.05000032	          0.15958156	          0.11940565	          0.11940562	          0.11940449	          0.14809353	          0.21025623	          0.19003152	          0.16442121	          0.14802470	          0.19432531	          0.06554169	          0.05000261	          0.11903082	          0.05000163	          0.11137230	          0.05000467	          0.06390214	          0.05000008	          0.05000010	
